<?xml version="1.0" standalone="no"?>
<!DOCTYPE svg PUBLIC "-//W3C//DTD SVG 20010904//EN"
 "http://www.w3.org/TR/2001/REC-SVG-20010904/DTD/svg10.dtd">
<svg version="1.0" xmlns="http://www.w3.org/2000/svg"
 width="512.000000pt" height="512.000000pt" viewBox="0 0 512.000000 512.000000"
 preserveAspectRatio="xMidYMid meet">

<g transform="translate(0.000000,512.000000) scale(0.100000,-0.100000)"
fill="#000000" stroke="none">
<path d="M1284 5114 c-12 -3 -34 -19 -50 -35 -29 -30 -29 -31 -32 -177 l-4
-147 122 0 122 0 -4 147 -3 148 -30 30 c-31 31 -77 43 -121 34z"/>
<path d="M420 4752 c-21 -10 -42 -32 -53 -54 -31 -62 -18 -90 96 -205 l100
-103 83 83 83 82 -92 94 c-84 85 -134 121 -169 121 -7 0 -29 -8 -48 -18z"/>
<path d="M2125 4756 c-16 -8 -71 -56 -122 -107 l-92 -94 83 -82 83 -83 100
103 c111 112 124 140 99 200 -25 61 -94 89 -151 63z"/>
<path d="M1215 4514 c-69 -11 -194 -56 -255 -91 -89 -52 -217 -181 -265 -266
-21 -38 -49 -103 -63 -145 -22 -67 -25 -95 -25 -212 0 -117 3 -145 25 -212 39
-119 92 -204 182 -293 95 -94 178 -145 296 -182 73 -24 102 -27 210 -27 108 0
137 3 210 27 118 37 201 88 296 182 90 89 143 174 182 293 22 67 25 95 25 212
0 117 -3 145 -25 212 -39 119 -92 204 -182 293 -142 140 -284 203 -476 210
-58 2 -118 1 -135 -1z"/>
<path d="M84 3913 c-12 -2 -34 -18 -50 -34 -24 -25 -29 -39 -29 -79 0 -43 5
-54 33 -82 l32 -33 148 -3 147 -4 0 121 0 121 -130 -1 c-72 -1 -140 -4 -151
-6z"/>
<path d="M2275 3800 l0 -120 128 0 c182 0 231 25 231 120 0 95 -49 120 -231
120 l-128 0 0 -120z"/>
<path d="M463 3107 c-114 -115 -127 -143 -96 -205 12 -24 32 -44 56 -56 62
-30 95 -14 209 101 l97 98 -83 82 -83 83 -100 -103z"/>
<path d="M1993 3126 l-83 -83 103 -100 c115 -114 143 -127 205 -96 24 12 44
32 56 56 30 62 14 95 -101 209 l-98 97 -82 -83z"/>
<path d="M4709 2865 c-25 -8 -64 -27 -86 -42 -23 -16 -299 -296 -613 -623
l-571 -595 -1117 -5 -1117 -5 -60 -28 c-53 -25 -121 -88 -572 -540 -580 -580
-568 -565 -568 -707 0 -181 134 -315 315 -315 140 0 134 -5 645 506 l450 449
1096 0 c1208 0 1151 -3 1243 63 53 37 1268 1300 1308 1359 111 163 49 383
-131 466 -67 31 -156 38 -222 17z"/>
<path d="M1202 2698 l3 -148 32 -32 c27 -27 39 -32 82 -32 44 -1 55 3 83 32
l33 32 3 148 4 147 -122 0 -122 0 4 -147z"/>
<path d="M4122 930 c-144 -153 -203 -194 -384 -268 -17 -7 61 -94 429 -475
150 -156 195 -182 313 -182 60 0 86 5 131 26 179 84 241 305 132 466 -30 44
-500 543 -512 543 -4 0 -53 -49 -109 -110z"/>
</g>
</svg>
